<svg width="24" height="24" viewBox="0 0 24 24" fill="none" xmlns="http://www.w3.org/2000/svg">
<path fill-rule="evenodd" clip-rule="evenodd" d="M11 3.75C6.99594 3.75 3.75 6.99594 3.75 11C3.75 15.0041 6.99594 18.25 11 18.25C15.0041 18.25 18.25 15.0041 18.25 11C18.25 6.99594 15.0041 3.75 11 3.75ZM2.25 11C2.25 6.16751 6.16751 2.25 11 2.25C15.8325 2.25 19.75 6.16751 19.75 11C19.75 12.8902 19.1506 14.6404 18.1316 16.071L21.5303 19.4697L20.4697 20.5303L17.1568 17.2174C15.5758 18.7831 13.4008 19.75 11 19.75C6.16751 19.75 2.25 15.8325 2.25 11Z" fill="black"/>
</svg>
