<svg width="24" height="24" viewBox="0 0 24 24" fill="none" xmlns="http://www.w3.org/2000/svg">
<mask id="path-1-inside-1_2553_7784" fill="white">
<path fill-rule="evenodd" clip-rule="evenodd" d="M12 21C16.9706 21 21 16.9706 21 12C21 7.02944 16.9706 3 12 3C7.02944 3 3 7.02944 3 12C3 16.9706 7.02944 21 12 21ZM12 22C17.5228 22 22 17.5228 22 12C22 6.47715 17.5228 2 12 2C6.47715 2 2 6.47715 2 12C2 17.5228 6.47715 22 12 22Z"/>
</mask>
<path fill-rule="evenodd" clip-rule="evenodd" d="M12 21C16.9706 21 21 16.9706 21 12C21 7.02944 16.9706 3 12 3C7.02944 3 3 7.02944 3 12C3 16.9706 7.02944 21 12 21ZM12 22C17.5228 22 22 17.5228 22 12C22 6.47715 17.5228 2 12 2C6.47715 2 2 6.47715 2 12C2 17.5228 6.47715 22 12 22Z" fill="#001418"/>
<path d="M20 12C20 16.4183 16.4183 20 12 20V22C17.5228 22 22 17.5228 22 12H20ZM12 4C16.4183 4 20 7.58172 20 12H22C22 6.47715 17.5228 2 12 2V4ZM4 12C4 7.58172 7.58172 4 12 4V2C6.47715 2 2 6.47715 2 12H4ZM12 20C7.58172 20 4 16.4183 4 12H2C2 17.5228 6.47715 22 12 22V20ZM21 12C21 16.9706 16.9706 21 12 21V23C18.0751 23 23 18.0751 23 12H21ZM12 3C16.9706 3 21 7.02944 21 12H23C23 5.92487 18.0751 1 12 1V3ZM3 12C3 7.02944 7.02944 3 12 3V1C5.92487 1 1 5.92487 1 12H3ZM12 21C7.02944 21 3 16.9706 3 12H1C1 18.0751 5.92487 23 12 23V21Z" fill="#001418" mask="url(#path-1-inside-1_2553_7784)"/>
<path fill-rule="evenodd" clip-rule="evenodd" d="M7 17L17 7L7 17Z" fill="#001418"/>
<path fill-rule="evenodd" clip-rule="evenodd" d="M7 7L17 17L7 7Z" fill="#001418"/>
<path fill-rule="evenodd" clip-rule="evenodd" d="M12 13.0607L7.53034 17.5303L6.46968 16.4697L10.9394 12L6.46968 7.53033L7.53034 6.46967L12 10.9393L16.4697 6.46967L17.5303 7.53033L13.0607 12L17.5303 16.4697L16.4697 17.5303L12 13.0607Z" fill="#001418"/>
</svg>
