<?xml version="1.0" encoding="UTF-8" standalone="no"?>
<!DOCTYPE svg PUBLIC "-//W3C//DTD SVG 1.1//EN" "http://www.w3.org/Graphics/SVG/1.1/DTD/svg11.dtd">
<svg width="100%" height="100%" viewBox="0 0 1846 930" version="1.1" xmlns="http://www.w3.org/2000/svg" xmlns:xlink="http://www.w3.org/1999/xlink" xml:space="preserve" xmlns:serif="http://www.serif.com/" style="fill-rule:evenodd;clip-rule:evenodd;stroke-linejoin:round;stroke-miterlimit:2;">
    <g transform="matrix(4.16667,0,0,4.16667,0,0)">
        <path d="M0,203.416C0,195.718 4.536,192.143 10.447,192.143C14.249,192.143 17.228,193.747 18.97,196.725C20.711,193.747 23.69,192.143 27.492,192.143C33.403,192.143 37.94,195.718 37.94,203.416L37.94,222.707L32.074,222.707L32.074,203.416C32.074,199.292 29.875,197.597 26.989,197.597C24.102,197.597 21.903,199.338 21.903,203.416L21.903,222.707L16.038,222.707L16.038,203.416C16.038,199.338 13.837,197.597 10.951,197.597C8.064,197.597 5.865,199.292 5.865,203.416L5.865,222.707L0,222.707L0,203.416Z" style="fill:rgb(4,9,12);fill-rule:nonzero;"/>
        <path d="M70.59,208.414L70.59,205.162C70.59,200.352 68.209,197.604 63.261,197.604C58.359,197.604 55.978,200.352 55.978,205.162L55.978,208.414L70.59,208.414ZM50.252,205.162C50.252,197.146 54.833,192.152 63.306,192.152C71.782,192.152 76.454,197.146 76.454,205.162L76.454,222.707L70.59,222.707L70.59,213.729L55.978,213.729L55.978,222.707L50.252,222.707L50.252,205.162Z" style="fill:rgb(4,9,12);fill-rule:nonzero;"/>
        <rect x="89.392" y="192.31" width="5.949" height="30.397" style="fill:rgb(4,9,12);fill-rule:nonzero;"/>
        <path d="M123.326,217.222C126.115,217.222 127.231,215.595 127.231,213.597C127.231,211.551 125.836,209.925 123.372,209.925L114.541,209.925L114.541,217.222L123.326,217.222ZM122.396,204.627C124.86,204.627 126.022,203.139 126.022,201.234C126.022,199.281 125.092,197.84 122.349,197.84L114.541,197.84L114.541,204.627L122.396,204.627ZM108.591,192.31L123.14,192.31C128.904,192.31 131.925,195.61 131.925,200.211C131.925,203.279 130.483,205.65 127.974,206.903L127.974,206.996C131.32,208.066 133.319,210.855 133.319,214.48C133.319,219.222 130.252,222.707 124.349,222.707L108.591,222.707L108.591,192.31Z" style="fill:rgb(4,9,12);fill-rule:nonzero;"/>
        <path d="M168.876,207.476C168.876,201.643 164.866,197.405 158.942,197.405C153.019,197.405 149.008,201.643 149.008,207.476C149.008,213.308 153.019,217.592 158.942,217.592C164.866,217.592 168.876,213.308 168.876,207.476ZM143.085,207.476C143.085,198.545 149.647,191.983 158.942,191.983C168.237,191.983 174.8,198.545 174.8,207.476C174.8,216.407 168.237,222.968 158.942,222.968C149.647,222.968 143.085,216.407 143.085,207.476Z" style="fill:rgb(4,9,12);fill-rule:nonzero;"/>
        <path d="M199.937,206.903C203.701,206.903 204.956,204.952 204.956,202.348C204.956,199.747 203.701,197.84 199.937,197.84L193.057,197.84L193.057,206.903L199.937,206.903ZM187.108,192.31L199.844,192.31C207.559,192.31 210.952,196.538 210.952,202.348C210.952,207.137 208.675,210.437 204.585,211.785L212.068,222.707L205.002,222.707L198.542,212.435L193.057,212.435L193.057,222.707L187.108,222.707L187.108,192.31Z" style="fill:rgb(4,9,12);fill-rule:nonzero;"/>
        <path d="M222.485,204.654C222.485,196.954 227.086,192.143 235.405,192.143C243.726,192.143 248.327,196.954 248.327,204.654L248.327,222.707L242.378,222.707L242.378,204.654C242.378,200.209 240.053,197.597 235.405,197.597C230.757,197.597 228.434,200.209 228.434,204.654L228.434,222.707L222.485,222.707L222.485,204.654Z" style="fill:rgb(4,9,12);fill-rule:nonzero;"/>
        <path d="M260.792,211.622L260.792,192.31L266.664,192.31L266.664,211.622C266.664,215.751 268.865,217.448 271.755,217.448C274.645,217.448 276.848,215.705 276.848,211.622L276.848,192.31L282.719,192.31L282.719,211.622C282.719,215.705 284.921,217.448 287.811,217.448C290.701,217.448 292.904,215.751 292.904,211.622L292.904,192.31L298.775,192.31L298.775,211.622C298.775,219.329 294.233,222.906 288.315,222.906C284.508,222.906 281.527,221.301 279.784,218.319C278.039,221.301 275.058,222.906 271.251,222.906C265.333,222.906 260.792,219.329 260.792,211.622Z" style="fill:rgb(4,9,12);fill-rule:nonzero;"/>
        <path d="M335.456,207.469C335.456,201.621 331.435,197.373 325.497,197.373C319.558,197.373 315.537,201.621 315.537,207.469C315.537,213.316 319.558,217.611 325.497,217.611C331.435,217.611 335.456,213.316 335.456,207.469ZM309.599,207.469C309.599,198.515 316.178,191.936 325.497,191.936C334.815,191.936 341.394,198.515 341.394,207.469C341.394,216.423 334.815,223 325.497,223C316.178,223 309.599,216.423 309.599,207.469Z" style="fill:rgb(4,9,12);fill-rule:nonzero;"/>
        <path d="M353.622,192.31L359.571,192.31L359.571,217.222L375.468,217.222L375.468,222.707L353.622,222.707L353.622,192.31Z" style="fill:rgb(4,9,12);fill-rule:nonzero;"/>
        <path d="M386.767,192.31L408.799,192.31L408.799,197.84L392.716,197.84L392.716,204.534L406.103,204.534L406.103,209.925L392.716,209.925L392.716,222.707L386.767,222.707L386.767,192.31Z" style="fill:rgb(4,9,12);fill-rule:nonzero;"/>
        <path d="M420.236,192.31L442.268,192.31L442.268,197.84L426.186,197.84L426.186,204.534L439.572,204.534L439.572,209.925L426.186,209.925L426.186,222.707L420.236,222.707L420.236,192.31Z" style="fill:rgb(4,9,12);fill-rule:nonzero;"/>
        <path d="M199.721,49.62L199.734,49.62C199.82,32.815 208.278,18.008 221.134,9.105C213.132,3.562 203.436,0.294 192.964,0.294C165.666,0.294 143.533,22.355 143.393,49.62L143.38,49.62L143.38,137.09L186.204,137.09L186.204,49.875C186.205,46.142 189.231,43.117 192.964,43.117C196.692,43.117 199.712,46.135 199.721,49.861L199.721,49.62Z" style="fill:url(#_Linear1);"/>
        <path d="M298.857,49.62C298.717,22.356 276.584,0.293 249.286,0.293C221.989,0.293 199.856,22.356 199.716,49.62L199.703,49.62L199.703,137.09L242.527,137.09L242.527,49.862C242.527,47.247 243.969,44.743 246.378,43.726C251.309,41.643 256.045,45.205 256.045,49.875L256.045,137.09L298.87,137.09L298.87,49.62L298.857,49.62Z" style="fill:url(#_Linear2);"/>
    </g>
    <defs>
        <linearGradient id="_Linear1" x1="0" y1="0" x2="1" y2="0" gradientUnits="userSpaceOnUse" gradientTransform="matrix(53.8771,12.8126,-12.8126,53.8771,144.626,62.3991)"><stop offset="0" style="stop-color:rgb(233,76,155);stop-opacity:1"/><stop offset="1" style="stop-color:rgb(237,50,147);stop-opacity:1"/></linearGradient>
        <linearGradient id="_Linear2" x1="0" y1="0" x2="1" y2="0" gradientUnits="userSpaceOnUse" gradientTransform="matrix(96.3349,0.0198998,-0.0198998,96.3349,203.754,68.687)"><stop offset="0" style="stop-color:rgb(66,199,240);stop-opacity:1"/><stop offset="1" style="stop-color:rgb(101,188,69);stop-opacity:1"/></linearGradient>
    </defs>
</svg>
